HIERARCHY
ROOT Hips
{
	OFFSET 0.00000 0.00000 0.00000
	CHANNELS 6 Xposition Yposition Zposition Zrotation Yrotation Xrotation 
	JOINT LHipJoint
	{
		OFFSET 0 0 0
		CHANNELS 3 Zrotation Yrotation Xrotation
		JOINT LeftHip
		{
			OFFSET 1.61024 -1.73873 0.75100
			CHANNELS 3 Zrotation Yrotation Xrotation
			JOINT LeftKnee
			{
				OFFSET 2.29819 -6.31424 0.00000
				CHANNELS 3 Zrotation Yrotation Xrotation
				JOINT LeftAnkle
				{
					OFFSET 2.76618 -7.60002 0.00000
					CHANNELS 3 Zrotation Yrotation Xrotation
					JOINT LeftToe
					{
						OFFSET 0.16838 -0.46263 2.02361
						CHANNELS 3 Zrotation Yrotation Xrotation
						End Site
						{
							OFFSET 0.00000 -0.00000 1.04662
						}
					}
				}
			}
		}
	}
	JOINT RHipJoint
	{
		OFFSET 0 0 0
		CHANNELS 3 Zrotation Yrotation Xrotation
		JOINT RightHip
		{
			OFFSET -1.46153 -1.73873 0.75100
			CHANNELS 3 Zrotation Yrotation Xrotation
			JOINT RightKnee
			{
				OFFSET -2.38373 -6.54924 0.00000
				CHANNELS 3 Zrotation Yrotation Xrotation
				JOINT RightAnkle
				{
					OFFSET -2.80314 -7.70157 0.00000
					CHANNELS 3 Zrotation Yrotation Xrotation
					JOINT RightToe
					{
						OFFSET -0.16142 -0.44349 2.02101
						CHANNELS 3 Zrotation Yrotation Xrotation
						End Site
						{
							OFFSET -0.00000 -0.00000 1.04381
						}
					}
				}
			}
		}
	}
	JOINT lowerback
	{
		OFFSET 0 0 0
		CHANNELS 3 Zrotation Yrotation Xrotation
		JOINT Chest
		{
			OFFSET -0.01629 1.66985 0.14750
			CHANNELS 3 Zrotation Yrotation Xrotation
			JOINT Chest2
			{
				OFFSET 0.02086 1.62378 0.20980
				CHANNELS 3 Zrotation Yrotation Xrotation
				JOINT lowerneck
				{
					OFFSET 0 0 0
					CHANNELS 3 Zrotation Yrotation Xrotation
					JOINT Neck
					{
						OFFSET -0.05690 1.78719 0.08702
						CHANNELS 3 Zrotation Yrotation Xrotation
						JOINT Head
						{
							OFFSET 0.16035 1.73871 -0.38470
							CHANNELS 3 Zrotation Yrotation Xrotation
							End Site
							{
								OFFSET 0.05645 1.80914 -0.14081
							}
						}
					}
				}
				JOINT LeftCollar
				{
					OFFSET 0 0 0
					CHANNELS 3 Zrotation Yrotation Xrotation
					JOINT LeftShoulder
					{
						OFFSET 2.83089 1.66494 -0.46008
CHANNELS 3 Zrotation Xrotation Yrotation
						JOINT LeftElbow
						{
OFFSET 0 -5.548930 -0.000000
CHANNELS 3 Zrotation Xrotation Yrotation
							JOINT LeftWrist
							{
OFFSET 0 -3.028980 -0.000000
CHANNELS 3 Zrotation Xrotation Yrotation
								JOINT lhand
								{
									OFFSET 0 0 0
CHANNELS 3 Zrotation Xrotation Yrotation
									JOINT LFingers
									{
OFFSET 0 -0.640950 -0.000000
CHANNELS 3 Zrotation Xrotation Yrotation
										End Site
										{
OFFSET 0 -0.516750 -0.000000
										}
									}
								}
								JOINT LThumb
								{
OFFSET 0 0.000000 0.000000
CHANNELS 3 Zrotation Xrotation Yrotation
									End Site
									{
OFFSET 0 -0.524640 0.524640
									}
								}
							}
						}
					}
				}
				JOINT RightCollar
				{
					OFFSET 0 0 0
					CHANNELS 3 Zrotation Yrotation Xrotation
					JOINT RightShoulder
					{
						OFFSET -2.84442 1.45761 -0.18088
CHANNELS 3 Zrotation Xrotation Yrotation
						JOINT RightElbow
						{
OFFSET 0 -5.351900 -0.000000
CHANNELS 3 Zrotation Xrotation Yrotation
							JOINT RightWrist
							{
OFFSET 0 -3.025310 -0.000000
CHANNELS 3 Zrotation Xrotation Yrotation
								JOINT rhand
								{
									OFFSET 0 0 0
CHANNELS 3 Zrotation Xrotation Yrotation
									JOINT RFingers
									{
OFFSET 0 -0.783890 -0.000000
CHANNELS 3 Zrotation Xrotation Yrotation
										End Site
										{
OFFSET 0 -0.631990 -0.000000
										}
									}
								}
								JOINT RThumb
								{
OFFSET 0 0.000000 0.000000
CHANNELS 3 Zrotation Xrotation Yrotation
									End Site
									{
OFFSET 0 -0.641640 0.641640
									}
								}
							}
						}
					}
				}
			}
		}
	}
}
MOTION
Frames: 11
Frame Time: 0.008333333333333333
0.082200 17.822700 0.436900 -172.350000 85.853600 -159.389000 0.000000 0.000000 0.000000 -15.278400 -9.948100 -1.625800 0.000000 -0.000000 -0.000000 0.137200 3.861700 -9.499500 1.005600 -6.381100 -17.894100 0.000000 0.000000 0.000000 18.363400 14.646900 -6.158900 -0.527400 -4.653800 12.923700 0.106700 -15.597100 -21.019800 -0.761300 5.572000 -15.547500 -1.992900 -0.680100 -14.479100 0.610700 0.101400 -11.182900 1.748900 0.530100 -3.735600 -4.918300 -2.759600 -10.475000 6.015700 -3.189700 39.641600 3.225400 -0.504400 16.060800 -0.000000 -0.000000 0.000000 13.757800 -60.854600 -70.795000 160.074500 -30.552500 114.506600 59.581800 -28.958000 -29.123300 0.000000 0.000000 0.000000 -7.125000 0.000000 0.000000 53.707300 71.232900 -36.627800 -0.000000 -0.000000 0.000000 -24.922200 -62.625400 60.370800 -159.836500 -30.838900 -114.385100 -53.417900 -90.962100 -15.235100 0.000000 0.000000 0.000000 7.125000 0.000000 -0.000000 -16.370000 6.227400 -15.144600
0.111706 17.822530 0.398664 -173.251513 85.828708 -160.161093 0.000000 0.000000 0.000000 -15.474814 -10.026388 -1.647365 0.000000 0.000000 0.000000 0.137740 3.892609 -9.539840 0.865212 -5.930148 -16.582126 0.000000 0.000000 0.000000 18.184060 14.735496 -5.952704 -0.507998 -4.568643 12.682131 0.117180 -15.739576 -21.118746 -0.713716 5.398975 -15.050017 -1.351306 -0.869279 -14.698600 0.953772 -0.201611 -11.204689 1.715981 0.353710 -3.630271 -4.906536 -2.811966 -10.124977 5.627936 -3.206937 38.972269 3.005267 -0.595504 15.617953 0.000000 0.000000 0.000000 14.086815 -61.163070 -70.090047 160.112078 -30.507042 114.525664 59.365186 -29.528777 -29.218335 0.000000 0.000000 0.000000 -7.125000 0.000000 0.000000 53.240099 71.286740 -36.312796 0.000000 0.000000 0.000000 -26.277778 -62.782441 59.044078 -159.814770 -30.864851 -114.373911 -53.667292 -90.341108 -14.547875 0.000000 0.000000 0.000000 7.125000 0.000000 0.000000 -16.697329 7.123753 -15.172299
0.129655 17.821500 0.389351 -172.902334 86.092865 -159.520274 0.000000 0.000000 0.000000 -15.506009 -9.831780 -1.917215 0.000000 0.000000 0.000000 0.144769 3.811819 -9.620239 0.979282 -6.299221 -17.655118 0.000000 0.000000 0.000000 18.048121 15.002055 -6.139756 -0.503079 -4.547056 12.621082 0.112632 -15.718029 -21.136134 -0.724693 5.439322 -15.165889 -1.314793 -1.035307 -14.596175 1.152303 -0.427842 -11.222043 1.879009 0.244031 -3.693701 -4.796241 -2.730272 -10.398636 5.757364 -3.271963 37.908221 2.968588 -0.641621 15.149872 0.000000 0.000000 0.000000 14.320769 -61.975728 -68.883091 159.654085 -31.056906 114.291289 56.991917 -33.257626 -28.285597 0.000000 0.000000 0.000000 -7.125000 0.000000 0.000000 45.172320 69.778168 -28.704128 0.000000 0.000000 0.000000 -27.623673 -63.335776 57.014517 -159.441234 -31.309670 -114.181056 -51.675096 -89.439047 -15.089960 0.000000 0.000000 0.000000 7.125000 0.000000 0.000000 -15.387781 7.157859 -13.873554
0.130449 17.824566 0.390819 -170.937317 86.600727 -157.262776 0.000000 0.000000 0.000000 -15.483292 -9.401481 -2.331312 0.000000 0.000000 0.000000 0.142912 3.841236 -9.605388 0.706895 -5.373418 -14.976805 0.000000 0.000000 0.000000 17.941390 15.471882 -6.441281 -0.502537 -4.544621 12.614135 0.205527 -16.004282 -20.550693 -0.925004 6.127203 -17.154001 -1.422167 -1.075227 -14.308063 1.217678 -0.497684 -11.103962 2.001570 0.206375 -3.713301 -4.704322 -2.588262 -9.973759 6.125991 -3.412500 34.841201 2.928547 -0.767487 13.622574 0.000000 0.000000 0.000000 16.371596 -61.251921 -62.877628 157.257293 -33.805426 113.005059 49.725856 -38.217359 -26.373640 0.000000 0.000000 0.000000 -7.125000 0.000000 0.000000 27.895390 65.410673 -14.263333 0.000000 0.000000 0.000000 -28.961782 -61.262636 54.201501 -156.472558 -34.660051 -112.563660 -45.524809 -79.370406 -15.329026 0.000000 0.000000 0.000000 7.125000 0.000000 0.000000 -11.608356 8.959465 -9.868973
0.085171 17.832195 0.390380 -166.549394 87.030379 -152.617010 0.000000 0.000000 0.000000 -15.332806 -9.015382 -2.801985 0.000000 0.000000 0.000000 0.144089 3.765349 -9.564045 0.827371 -5.803229 -16.214483 0.000000 0.000000 0.000000 17.899694 15.629683 -6.985693 -0.500497 -4.535289 12.587573 0.212128 -15.744960 -20.064330 -1.003675 6.375214 -17.876873 -1.367478 -1.129236 -13.975466 1.276932 -0.620188 -10.837143 2.021481 0.122516 -3.593579 -5.074515 -2.217488 -9.054480 7.136306 -3.277040 30.081339 3.204611 -0.809571 11.448530 0.000000 0.000000 0.000000 19.879360 -55.905687 -55.418989 142.334798 -46.623609 103.277956 44.115077 -11.940661 -17.083974 0.000000 0.000000 0.000000 -7.125000 0.000000 0.000000 16.987522 52.353081 -3.148830 0.000000 0.000000 0.000000 -28.718922 -54.704757 53.233358 -144.753956 -44.986708 -105.012893 -42.584220 -58.719167 -18.092942 0.000000 0.000000 0.000000 7.125000 0.000000 0.000000 -9.207774 6.308532 -8.250099
0.002099 17.846854 0.393139 -163.685462 87.475436 -149.635055 0.000000 0.000000 0.000000 -15.340101 -8.687479 -3.296907 0.000000 0.000000 0.000000 0.134504 3.799153 -9.384048 0.851586 -5.883365 -16.447038 0.000000 0.000000 0.000000 17.704016 16.144876 -7.462258 -0.514183 -4.596287 12.760556 0.205105 -15.579454 -19.883400 -0.888460 6.005568 -16.801455 -1.528185 -1.107450 -13.173475 1.199793 -0.638544 -10.563289 2.033183 0.096750 -3.722108 -5.197494 -2.005790 -8.645711 8.208919 -3.286700 25.849361 3.465584 -0.857553 9.798071 0.000000 0.000000 0.000000 19.147116 -43.510932 -48.646427 113.553490 -57.790423 80.245947 41.083845 15.344199 -6.587070 0.000000 0.000000 0.000000 -7.125000 0.000000 0.000000 12.337225 38.412689 2.037729 0.000000 0.000000 0.000000 -26.024146 -42.159528 56.830015 -121.845988 -55.792215 -87.189097 -42.485549 -41.409710 -21.514459 0.000000 0.000000 0.000000 7.125000 0.000000 0.000000 -8.413813 2.115696 -8.187460
-0.054523 17.851852 0.380886 -154.050289 88.064739 -139.550205 0.000000 0.000000 0.000000 -15.279316 -8.185279 -4.064399 0.000000 0.000000 0.000000 0.138910 3.730988 -9.420262 0.467612 -4.386066 -12.165327 0.000000 0.000000 0.000000 17.472915 16.234504 -8.369069 -0.510963 -4.581975 12.720065 0.233155 -15.200057 -18.932612 -1.089372 6.631818 -18.629503 -1.522315 -1.120861 -12.421016 1.257833 -0.728372 -10.163918 2.086190 0.023104 -3.688477 -5.573304 -1.625014 -8.196794 9.734998 -2.922242 19.536176 3.909141 -0.782395 7.549107 0.000000 0.000000 0.000000 15.739538 -26.044088 -51.048272 83.914631 -59.858695 54.732432 30.804805 4.568005 -10.656492 0.000000 0.000000 0.000000 -7.125000 0.000000 0.000000 3.367954 42.309182 0.231454 0.000000 0.000000 0.000000 -22.164796 -25.179580 65.042592 -92.158351 -59.978826 -61.868950 -38.654747 -38.637198 -21.529907 0.000000 0.000000 0.000000 7.125000 0.000000 0.000000 -6.114349 3.306451 -5.787441
-0.012849 17.868667 0.350186 -157.378958 88.063103 -141.350908 0.000000 0.000000 0.000000 -15.235811 -8.673520 -5.520243 0.000000 0.000000 0.000000 0.143924 3.552263 -9.376440 0.744982 -5.513125 -15.378132 0.000000 0.000000 0.000000 16.796454 17.559207 -9.934521 -0.560345 -4.794734 13.324180 0.291520 -15.944270 -19.444829 -1.148182 6.803588 -19.134918 -1.572201 -1.791464 -12.560441 1.437079 -1.592638 -10.379874 2.222675 -0.392579 -3.800200 -5.288998 -1.021882 -8.736608 10.995752 -2.090022 14.166903 4.223926 -0.413059 5.873892 0.000000 0.000000 0.000000 11.647146 -4.814212 -53.546648 75.487242 -59.188859 47.465866 34.618119 -38.953792 -31.496215 0.000000 0.000000 0.000000 -7.125000 0.000000 0.000000 4.175348 66.608972 -2.202476 0.000000 0.000000 0.000000 -19.408119 -7.334185 73.959528 -73.110683 -58.893971 -45.427802 -26.390398 -31.649516 -14.237482 0.000000 0.000000 0.000000 7.125000 0.000000 0.000000 0.738537 14.161765 0.530009
0.083753 17.850141 0.307976 -145.502826 89.135593 -130.295890 0.000000 0.000000 0.000000 -16.004515 -7.358054 -4.421762 0.000000 0.000000 0.000000 0.180741 3.179351 -9.852418 0.611574 -5.005437 -13.924017 0.000000 0.000000 0.000000 16.625305 17.604791 -8.829816 -0.581756 -4.884034 13.578106 0.105575 -15.126758 -20.331188 -0.895285 6.029991 -16.871858 -1.987849 -2.100209 -11.331097 1.681619 -2.080454 -9.732528 2.688594 -0.655404 -3.719608 -4.674995 -0.433342 -9.305979 11.600789 -1.092981 9.234262 4.300096 0.016086 4.376692 0.000000 0.000000 0.000000 9.510247 13.706231 -52.096212 74.179111 -59.032717 46.343148 49.430285 -61.734556 -36.678102 0.000000 0.000000 0.000000 -7.125000 0.000000 0.000000 34.665521 76.794594 -26.420640 0.000000 0.000000 0.000000 -21.347797 6.047040 77.969078 -75.407666 -59.179822 -47.397513 -11.386161 -28.576213 -12.616282 0.000000 0.000000 0.000000 7.125000 0.000000 0.000000 10.987964 17.260762 7.370554
0.039869 17.861355 0.257415 -142.074548 89.280591 -126.626900 0.000000 0.000000 0.000000 -16.183598 -7.408693 -4.898877 0.000000 0.000000 0.000000 0.169172 3.216862 -9.643356 0.601818 -4.964015 -13.806397 0.000000 0.000000 0.000000 16.221739 17.644050 -9.514328 -0.603595 -4.973092 13.831866 0.035930 -14.677957 -20.452161 -0.753260 5.541258 -15.459518 -1.632039 -2.159910 -11.247290 1.685981 -2.199946 -9.642436 2.484526 -0.741324 -3.672483 -4.763957 -0.610144 -8.443802 12.028573 -1.124833 6.332448 4.405834 -0.081469 3.366752 0.000000 0.000000 0.000000 15.066703 17.917690 -52.303705 84.206924 -59.872020 54.985250 45.140333 -66.796640 -34.197505 0.000000 0.000000 0.000000 -7.125000 0.000000 0.000000 22.109131 72.882722 -14.825587 0.000000 0.000000 0.000000 -28.962791 1.348068 73.747540 -92.410131 -59.975952 -62.087026 -2.892360 -33.414093 -10.978779 0.000000 0.000000 0.000000 7.125000 0.000000 0.000000 16.917273 19.213066 10.891407
-0.042820 17.854340 0.248388 -76.555356 89.003140 -61.236462 0.000000 0.000000 0.000000 -15.850393 -6.536988 -5.153716 0.000000 0.000000 0.000000 0.175292 2.970640 -9.581051 0.512391 -4.586811 -12.734033 0.000000 0.000000 0.000000 16.544175 17.371667 -9.314974 -0.520128 -4.622217 12.834061 0.125238 -14.339840 -18.910499 -0.939464 6.173329 -17.288177 -1.478472 -1.434280 -11.796681 1.857594 -1.163355 -10.260177 2.659989 -0.179755 -4.099684 -5.143273 -1.469234 -7.417403 11.506478 -2.430962 8.763141 4.255271 -0.728450 4.031459 0.000000 0.000000 0.000000 24.493822 8.961165 -44.914896 89.740940 -59.999409 59.775660 32.795933 -66.441247 -31.790313 0.000000 0.000000 0.000000 -7.125000 0.000000 0.000000 1.455945 66.378125 -0.760595 0.000000 0.000000 0.000000 -38.800032 -17.250996 54.937944 -111.122281 -58.245060 -78.184634 -20.256298 -68.462816 -6.317905 0.000000 0.000000 0.000000 7.125000 0.000000 0.000000 4.780263 23.253871 2.513271
